<?xml version="1.0" encoding="utf-8"?>
<!-- Generator: Adobe Illustrator 27.4.1, SVG Export Plug-In . SVG Version: 6.00 Build 0)  -->
<svg version="1.1" id="Warstwa_1" xmlns="http://www.w3.org/2000/svg" xmlns:xlink="http://www.w3.org/1999/xlink" x="0px" y="0px"
	 viewBox="0 0 1080 1080" style="enable-background:new 0 0 1080 1080;" xml:space="preserve">
<style type="text/css">
	.st0{fill:#008F8C;}
</style>
<g>
	<path class="st0" d="M669.89,607.62c1.62,1.9,3.49,3.52,5.67,4.35c8.09,3.09,16.17,6.18,24.26,9.28c2.87,1.1,5.38,3.09,6.82,5.8
		c3.52,6.63-1.62,11.6-5.4,16.33c-11.65,14.62-12.18,37.06-1.24,52.22c3.95,5.48,9.54,11.38,7.74,17.89
		c-0.71,2.57-2.51,4.67-3.85,6.98c-1.34,2.3-2.24,5.22-1.01,7.59c3.45-2.69,6.94-5.42,9.56-8.91c2.62-3.5,4.31-7.92,3.64-12.23
		c-0.84-5.39-5.04-9.51-8.18-13.97c-10.38-14.71-9.07-36.56,2.98-49.93c-1.06,10.79-2.1,21.81,0.45,32.35
		c2.55,10.53,9.42,20.66,19.69,24.14c6.26,2.12,13.82,1.93,18.33,6.76c1.04,1.12,1.84,2.43,2.68,3.71c0.41,0.63,1.29,0.76,1.86,0.27
		c1.93-1.64,3.85-3.3,5.74-4.99c0.49-0.43,0.58-1.19,0.17-1.7c-1.98-2.48-4.64-4.5-7.46-5.97c-5.03-2.62-10.66-3.84-16.08-5.52
		c-5.42-1.68-10.89-3.98-14.68-8.21c-7.11-7.92-6.37-19.96-4.82-30.49c1.55-10.53,3.25-22.2-2.66-31.06
		c-3.39-5.09-8.88-8.44-14.59-10.62c-5.71-2.18-11.75-3.32-17.64-4.98c-3.99-1.12-8.1-2.59-10.47-6.24c-1.28-1.97-1.7-4.43-0.81-6.6
		c2.08-5.08,9.01-4.65,13.4-1.96c4.12,2.52,7.43,6.46,12.01,8.02c8.6,2.92,17.44-4.87,26.47-4.53c2.5,0.1,7.47,1,9.85,1.79
		c4.56,1.51,8.01,5.75,11.33,9.3c4.49,4.8,8.85,9.72,12.96,14.85c4.05,5.07,8.45,10.66,9.07,17.22c0.68,7.24-3.32,13.98-5.37,20.96
		c-2.39,8.16-2.05,17.09,0.94,25.04c1.36,3.6,3.31,7.08,6.28,9.52c0.51,0.42,1.05,0.8,1.61,1.14c0.48,0.29,1.09,0.19,1.49-0.19
		c0.89-0.86,1.78-1.73,2.67-2.6c0.43-0.43,0.49-1.1,0.14-1.6c-3.8-5.56-6.21-12.07-6.89-18.77c-0.28-2.79-0.26-5.68,0.79-8.28
		c1.04-2.6,3.28-4.86,6.04-5.3c3.49-0.56,6.93,1.96,8.41,5.17c1.47,3.21,1.33,6.93,0.72,10.41c-0.49,2.75-0.5,4.11-0.44,4.96
		c0.01,0.16,0.06,1.49,0.12,2.59c0.03,0.59,0.76,0.85,1.17,0.42c2.63-2.83,5.22-5.69,7.76-8.6c0.27-0.31,0.43-0.72,0.43-1.13
		c-0.04-24.9-13.77-50.63-35.73-62.95c-2.13-1.19-4.35-2.26-6.25-3.8c-1.9-1.53-3.48-3.63-3.79-6.05
		c-0.77-5.95,6.74-8.74,11.37-9.46c5.18-0.8,10.68-1,15.47,1.15c7.02,3.14,11.18,10.9,15.88,16.69c3.36,4.13,7.54,8.11,10.29,12.66
		c2.92,4.82,4.49,10.29,6.92,15.35c1.55,3.21,3.65,6.35,6.38,8.57c0.56,0.45,1.39,0.3,1.8-0.29c1.26-1.82,2.51-3.64,3.73-5.48
		c0.34-0.51,0.26-1.2-0.19-1.61c-0.3-0.28-0.59-0.58-0.86-0.88c-3.63-4.09-4.19-9.74-6.39-14.56c-2.03-4.46-4.88-8.62-8.38-12.06
		c-3.5-3.43-8-5.84-10.8-9.96c-0.8-1.18-1.37-2.52-1.59-3.92c-2.64-16.92,43.08,1.28,50.94,2.52c0.15,0.02,0.31,0.04,0.46,0.06
		c0.8-1.64,1.58-3.3,2.35-4.96c0.36-0.77-0.14-1.66-0.98-1.77c-5.96-0.79-11.88-2.13-17.54-3.72
		c-18.87-5.29-37.93-12.96-57.38-10.55c-17.21,2.14-33.2,12.09-50.53,11.43c-10.94-0.42-21.24-5.06-31.96-7.27
		c-17.29-3.57-35.86-0.56-51.13,8.29c-6.23,3.61-11.92,8.14-18.38,11.32c-6.46,3.18-14.08,4.92-20.87,2.53
		c-6.79-2.4-10.58-8.74-10.29-16.39l-0.09,0.12c-1.53-22.1-16.26-119.72-17.59-128.13c-1.33-8.43-2.58-16.88-4.19-25.26
		c-3.06-15.98-10.09-29.79-7.07-46.64c0.67-3.75,2.43-7.46,5.52-9.71c6.64-4.82,16.16-1.56,23.55-0.06c6.54,1.33,13.46,3,19.72,5.77
		c6.7,2.96,11.37,7.78,17.3,11.8c4.88,3.31,9.82,6.52,14.86,9.59c5.44,3.32,11.02,6.59,15.66,11.02
		c4.69,4.48,6.18,10.92,10.29,15.84c3.61,4.33,9.1,6.62,14.53,8.12c7.61,2.1,15.51,2.93,23.38,3.17c6.65,0.2,13.9-1.08,20.41,0.35
		c-11.18-2.46-22.41-4.72-33.52-7.53c-3.23-0.81-6.55-1.72-9.14-3.81c-2.59-2.09-4.27-5.69-3.13-8.82c0.91-2.5,3.4-4.14,5.98-4.76
		c2.58-0.62,5.28-0.38,7.93-0.13c25.46,0,52.45,5.43,77.17,11.07c-25.5-15.95-57.23-12.97-85.7-18.33
		c-22.5-4.23-43.27-15.25-61.53-28.8c-10.37-7.7-22.2-13.1-34.86-15.74c-1.99-0.41-4.02-0.77-5.82-1.71s-3.36-2.59-3.6-4.6
		c-0.29-2.37,1.24-4.55,2.77-6.39c3.89-4.67,8.33-8.8,13.08-12.58c5.57-4.46,12.04-8.23,19.41-7.14c7.18,1.07,13.79,4.81,20.02,8.31
		c16.74,9.39,31.83,23.57,51.24,27.19c14.49,2.7,29.34-1.28,44.08-1.32c14.74-0.04,31.63,5.9,36.19,19.92
		c2.08,6.39,1.21,13.52,3.66,19.78c4.87,12.43,20.21,16.54,33.48,17.98s28.32,2.76,36.58,13.25c-7.67-11.3-19.86-19.43-33.23-22.17
		c-8.08-1.66-16.73-1.49-24.05-5.31c-7.31-3.82-12.31-13.98-7.13-20.4c4.41-5.46,12.89-4.71,19.62-2.74
		c28.67,8.41,53.56,29.77,83.39,31.36c2.73-3.71-1.61-8.93-6.13-9.8c-4.52-0.86-9.29,0.51-13.76-0.61c-4.47-1.12-8.22-7.01-4.9-10.2
		c1.47-1.42,3.7-1.62,5.74-1.75c5.5-0.34,11-0.68,16.51-1.02c0.39-2.09,0.2-4.28-0.53-6.28c-29.94,2.62-60.42-1.08-88.86-10.78
		c-19.34-6.59-38.27-16.03-58.7-16.65c-17.28-0.52-35.63,5.19-51.27-2.17c-2.64-1.24-5.4-3.3-5.51-6.21
		c-0.29-7.31,13.28-5.6,16.71-12.06c-17.8,7.15-40.09,0.62-51.21-15c-2.47-3.48-4.48-7.89-3.06-11.91
		c2.58-7.32,12.97-6.88,20.5-5.03c15.24,3.74,30.47,7.47,45.71,11.21c8.62,2.11,18.95,6.06,20,14.87
		c-0.89-13.35-15.02-21.85-28.15-24.41c-13.13-2.56-27.18-1.71-39.27-7.44c-3.36-1.6-6.63-3.83-8.3-7.15
		c-1.85-3.68-1.43-8.14-0.06-12.03c3.67-10.45,14.29-18.04,25.37-18.13c11.07-0.09,21.82,7.34,25.65,17.73
		c1.7,4.6,2.39,10.04,6.26,13.05c4.4-12.52-3.26-27.92-15.9-31.95c-3.32-1.06-6.89-1.43-9.97-3.08c-3.07-1.64-5.59-5.17-4.53-8.49
		c0.56-1.76,1.98-3.08,3.43-4.23c11.4-9.06,27.65-11.59,41.27-6.42c7.77,2.95,15.31,9.71,14.67,17.99
		c-0.49,6.34-5.52,11.23-8.7,16.75c-6.5,11.27-4.99,26.12,2.09,37.04c7.08,10.92,19,18.1,31.6,21.37c9.71,2.51,20.2,3.01,28.8,8.17
		c8.6,5.16,14.07,17.65,7.6,25.31c9.12-4.89,7.55-19.5-0.04-26.52c-7.59-7.03-18.41-8.94-28.31-11.91
		c-9.53-2.86-18.86-7.08-26.11-13.89s-12.22-16.5-11.7-26.44c0.52-9.93,7.31-19.7,16.96-22.1c9.65-2.4,21.07,4.22,22.39,14.08
		c1.17,8.73-4.88,18.11-0.98,26.01c2.17,4.38,6.83,6.87,11.26,8.93c27.4,12.73,57.4,19.84,87.6,20.76
		c0.11-5.62-7.17-7.77-12.76-8.38c-22.44-2.46-44.52-8.15-65.36-16.83c-3.74-1.56-7.58-3.31-10.22-6.39
		c-2.64-3.08-3.72-7.87-1.45-11.23c2.5-3.71,7.99-4.19,12.14-2.51s7.37,4.97,10.84,7.8c15.56,12.66,38.04,16.19,56.73,8.91
		c-17.44-0.19-34.81-4.52-50.31-12.53c-2.59-1.34-5.31-2.98-6.36-5.7c-1.51-3.9,1.25-8.4,4.98-10.28s8.11-1.83,12.28-1.73
		c-4.37-3.92-11.09-0.77-16.8,0.58c-17.15,4.06-32.65-10.31-44.43-23.41c7.29-3.53,15.74-3.31,23.83-3.65s16.79-1.59,22.64-7.18
		c5.85-5.6,6.61-16.89-0.4-20.95c4.67,8.09-3.57,18.28-12.6,20.66c-9.03,2.39-18.67,0.29-27.9,1.71c-5.22,0.8-10.38,2.73-15.62,2.16
		c-6.43-0.7-11.8-4.98-17.46-8.11c-21.97-12.14-52.45-5.51-67.4,14.65c-1.73,2.34-4.17,5.16-6.94,4.24
		c-1.18-0.39-2.03-1.41-2.79-2.39c-6.14-7.86-11.63-17.39-10.12-27.24c1.98-12.97,15.48-21.27,28.45-23.3
		c12.97-2.03,26.23,0.35,39.32-0.56c9.63-0.67,19.44-3.11,28.78-0.66c7.53,1.97,13.86,6.9,20.71,10.58
		c6.85,3.69,15.26,6.14,22.3,2.83c-10.63-0.15-19.91-6.72-29.52-11.27c-16.53-7.82-35.72-9.88-53.53-5.73
		c-3.14,0.73-6.37,1.66-9.55,1.11c-3.18-0.55-6.3-3.12-6.2-6.35c0.13-4.13,4.89-6.27,8.86-7.41c19.75-5.63,39.84-10.11,60.11-13.41
		c-2.55-4.29-8.72-4.07-13.65-3.3c-34.79,5.42-73.12,12.87-94.38,40.93c-3.09,4.07-7.12,9.08-12.08,7.84
		c-2.54-0.63-4.35-2.81-5.98-4.86c-6.2-7.81-12.63-18.57-7.23-26.95c2.44-3.78,6.71-5.86,10.21-8.68
		c14.6-11.77,13.78-33.87,11.64-52.51c-0.74-6.46-3.72-14.86-10.19-14.2c-0.81,3.73-2.77,8.39-6.58,8.12
		c-3.61-0.25-5.01-4.64-6.36-8c-1.34-3.35-5.72-6.66-8.09-3.93c-2.28,8.82,2.81,17.77,8.34,25s11.98,14.57,12.98,23.62
		c1,9.05-7.1,19.51-15.78,16.74c-3.96-1.27-6.72-4.81-9-8.29c-9.15-14-14.76-30.3-16.14-46.97c-0.31-3.68-0.45-7.52-2.24-10.75
		c-1.79-3.23-5.85-5.57-9.22-4.06c5.62,41.49,20.67,81.68,43.67,116.67c10.62,16.15,23.44,32.8,23.1,52.13
		c-5.28-8.39-15.62-11.98-25.37-13.73c-9.75-1.75-20.01-2.35-28.71-7.09c-8.7-4.75-15.27-15.47-11.37-24.58
		c-5.27,3.8-8.03,10.78-6.79,17.16s6.41,11.82,12.71,13.38c-11.22,2.3-22.7,4.62-34.04,3.06c-11.35-1.56-22.73-7.75-27.38-18.22
		c-0.29,14.35,15.55,24.06,29.87,24.95c14.32,0.89,28.52-3.79,42.86-3.25c11.36,0.43,22.58,4.23,31.87,10.8
		c2.62,1.86,5.16,4,6.7,6.81c2.78,5.07,1.83,11.53-0.97,16.59c-5.53,9.97-16.76,14.99-26.07,21.57
		c-8.8,6.21-16.21,14.44-26.27,18.88c-6.09,2.69-13.09,3.9-19.66,2.55c-7.11-1.46-11.41-4.79-11.73-12.21
		c-0.06-1.33-0.97-5.28-0.01-6.25c2.43-2.45,4.12-5.76,4.75-9.16c0.84-0.31,1.7-0.64,2.34-1.27c0.56-0.55,0.91-1.28,1.11-2.04
		c0.2-0.76,0.25-1.55,0.31-2.33c0.16-2.17,0.32-4.35,0.47-6.52c0.04-0.53,0.06-1.11-0.46-1.46c-0.31-0.21-0.72-0.24-1.08-0.12
		c-0.43,0.14-0.75,0.42-1.01,0.76c0.16-0.92,0.25-1.87,0.25-2.84c0-8.51-6.42-14.67-14.34-14.67s-14.33,6.16-14.33,14.67
		c0,0.98,0.09,1.93,0.25,2.86c-0.27-0.34-0.58-0.62-1.02-0.77c-0.36-0.12-0.77-0.09-1.08,0.12c-0.53,0.35-0.5,0.94-0.46,1.47
		c0.16,2.17,0.32,4.35,0.47,6.52c0.06,0.78,0.11,1.57,0.31,2.33c0.2,0.76,0.54,1.5,1.1,2.04c0.64,0.62,1.5,0.95,2.34,1.27
		c0.63,3.4,2.32,6.71,4.75,9.16c-0.15,2.81-0.05,5.7-0.2,8.51c-0.08,1.48-0.18,3.01-0.87,4.31c-0.69,1.28-1.89,2.21-3.15,2.93
		c-1.02,0.59-2.11,1.05-3.26,1.29c-11.18,2.57-22.8-4.59-28.93-14.29c-6.13-9.7-11-20.71-12.46-32.09
		c-1.66-12.97-5.51-25.96-4.17-39.14c1.23-12,8.05-20.99,18.23-27.12c11.43-6.89,22.19-14.47,33.18-22.01
		c5.7-3.91,11.64-7.45,17.38-11.29c5.55-3.71,10.59-7.45,12.37-14.27c1.39-5.35,0.04-11.06-2.09-16.17
		c-4.94-11.82-13.82-21.48-22.71-30.7c-8.6-8.92-17.59-17.84-28.71-23.29c-11.12-5.45-24.91-6.93-35.71-0.86
		c11.72,3.6,23.47,7.22,34.66,12.23c4.38,1.96,9.24,4.91,9.71,9.69c0.35,3.46-1.92,6.77-4.87,8.6c-2.96,1.82-6.5,2.41-9.95,2.75
		c-21.24,2.07-43.17-4.38-59.96-17.54c-4.14-3.24-9.29-7.11-14.1-4.99c9.44,12.1,22.77,20.88,37.21,26.1
		c9.67,3.5,19.86,5.47,30.1,6.29c10.28,0.82,20.56-0.37,30.82,0.35c5.53,0.39,11.11,1.61,15.8,4.57c4.69,2.95,8.37,7.82,8.95,13.33
		c0.66,6.32-2.79,12.45-7.32,16.9c-4.54,4.45-10.14,7.63-15.28,11.36c-3.8,2.76-7.53,5.91-12.09,7.02c-4.15,1-8.56,0.17-12.49-1.49
		c-3.93-1.66-7.47-4.1-11.03-6.45c-9.01-5.95-18.32-11.43-27.82-16.56c-9.11-4.93-18.66-9.06-27.67-14.16
		c-5.43-3.08-11.78-5.08-18.14-4.23c-10.77,1.43-20.63,6.87-31.28,8.99c-12.27,2.45-25.42,0.26-36.24-6.03
		c-2.49-1.45-5.02-3.15-7.98-2.91c-1.87,0.15-3.64,1.27-4.14,3.08c-0.75,2.69,1.86,4.62,3.31,6.12c2.67,2.75,5.72,5.14,9.28,6.58
		c25.14,10.2,48.66,0.63,72.93-0.1c1.59-0.05,3.19,0.24,4.59,0.99c5.27,2.82,3.15,8.35-0.45,10.47c-2.6,1.52-5.74,1.72-8.75,1.87
		c-14.67,0.76-29.35,1.51-44.02,2.27c22.3,7.47,47.07,7.43,69.3-0.34c6.75-2.36,14.15-2.16,20.89,0.26
		c9.71,3.49,11.38,4.45,20.46,9.43c8.11,4.45,11.14,6.29,12.81,7.9c4.68,4.52-9.46,10.42-11.87,11.79
		c-9.39,5.32-15.14,13.45-17.05,24.13c-1.22,6.77-0.92,13.69-0.22,20.5c0.29,2.78,1.06,5.41-0.97,7.8c-1.56,1.83-4.64,2.34-6.85,1.4
		c-5.67-2.43-10.09-8.23-9.63-14.47c-3.28,6.08-3.15,13.86,0.33,19.82c2.75,4.71,7.52,8.15,12.8,9.46
		c5.74,1.42,10.55,5.59,12.47,11.18c6.57,19.06-20.89,27.85-34.62,23.45c-4.59-1.47-8.82-3.92-12.74-6.74
		c-5.62-4.03-10.87-9.16-12.89-15.78c-2.01-6.57-0.34-13.22,0.79-19.77c1.25-7.21,2.62-14.4,4.37-21.51
		c1.48-6.02,3.29-12.13,3.21-18.39c-0.05-3.99-1-8.06-3.33-11.3c-4.96-6.9-14.78-9.25-22.42-11.71c-7.5-2.42-14.96-5.02-22.63-6.86
		c-14.46-3.48-30.23-4.38-44.08,1.87c-3.21,1.45-6.1,3.3-9.07,5.16c-14.14,9.82-25.18,24.27-40.97,31.14
		c-9.44,4.11-20.16,4.94-30.22,2.79c-0.51-0.11-1.03,0.1-1.31,0.53c-1.5,2.28-2.98,4.58-4.43,6.9c-0.44,0.71-0.09,1.66,0.71,1.88
		c1.78,0.49,3.59,0.86,5.41,1.15c22.8,3.62,47.12-4.12,63.64-20.24c3.44,11.25-2.68,23.88-12.32,30.63
		c-9.64,6.75-21.99,8.51-33.74,7.92c-11.01-0.55-21.83-2.95-32.76-4.35c-0.51-0.07-1.02,0.19-1.27,0.65
		c-1.25,2.29-2.48,4.59-3.66,6.96c17.9,4.92,36.5,10.04,54.86,7.11c18-2.87,35.76-15.74,38.21-33.8c1.6-11.84-3.2-25.18,9.01-33.78
		c1.39-0.98,2.92-1.78,4.5-2.4c8.42-3.31,17.27-2.26,25.92-1.21c7.05,0.86,14.32,1.79,19.97,6.65c1.96,1.68,3.52,3.84,4.31,6.29
		c3.01,9.34-5.08,16.34-13.11,19.46c-6.85,2.66-14.46,3.8-20.36,8.17c-6.76,5-10.08,13.35-12.39,21.43
		c-2.31,8.08-4.03,16.57-8.77,23.52c-4.74,6.95-13.58,11.99-21.56,9.31c5.85,6.55,17.2,4.7,23.55-1.36
		c6.35-6.06,9.07-14.88,11.88-23.21c2.8-8.32,6.31-17.05,13.51-22.08c6.03-4.21,13.67-5.13,20.8-6.92
		c7.13-1.79,14.69-5.19,17.63-11.93c1.78-4.08,1.56-8.76,2.98-12.98c0.63-1.88,1.85-3.71,3.37-5.03c2.74-2.37,7.09-0.91,7.96,2.62
		c2.84,11.56-1.99,24.22-6.45,35.64c-5.01,12.81-9.41,27.91-2.31,39.69c5.4,8.96,16.23,13.53,20.32,23.76
		c1.45,3.64,1.57,7.74-0.24,11.21c-4.49,8.6-16.1,7.18-25.12,5.16c-0.39-0.09-0.79-0.17-1.18-0.25c-5.48-3.85-9.9-9.2-12.51-15.37
		c-2.25-5.31-3.25-11.19-6.4-16.02c-3.34-5.11-9.05-8.61-15.12-9.25c6.28,2.66,11.16,8.4,12.78,15.02
		c1.28,5.23,0.61,10.76,1.66,16.12c0.55,2.83-1.9,5.31-4.74,4.83c-8.74-1.47-17.5-2.79-26.27-4.1
		c-22.56-3.38-45.13-6.76-67.69-10.14c-21.73-3.26-43.81-6.5-65.69-6.23c-0.53,0.01-1,0.34-1.17,0.84
		c-1.13,3.13-2.21,6.29-3.24,9.46c-0.28,0.85,0.39,1.7,1.28,1.64c19.3-1.23,38.68-1.11,57.95,0.38c6.08,0.47,6.83,8.96,0.95,10.57
		c-12.61,3.44-26.08,3.75-38.77,0.61c15.85,10.98,37.57,12.87,55.07,4.79c3.61-1.67,7.08-3.73,10.59-5.67
		c11.11-6.15,22.34-2.56,33.97-1.06c13.13,1.69,26.27,3.41,39.35,5.49c7.35,1.17,14.67,2.44,21.97,3.88
		c4.24,0.84,11.15,2.4,15.31,3.59c4.56,1.3,9.53,2.06,14.16,0.59c5.86-1.86,10.13-6.97,13.12-12.34c1.97-3.53,3.66-7.43,6.88-9.87
		c1.64-1.24,3.57-2.02,5.51-2.71c6.4-2.3,13.5-4.34,20.35-4.39c12.89-0.11,24.97,9.76,29.55,21.29c0.48,1.22,0.76,2.51,0.86,3.82
		c0.06,0.73,0.04,1.49-0.25,2.16c-0.77,1.81-4.17,1.91-5.88,2.24c-2.46,0.47-4.93,0.88-7.39,1.28c-6.36,1.05-12.71,2.14-19,3.57
		c-13.29,3.02-21.97,17.97-35.58,18.75c-18.02,1.04-34.11-14.07-52.11-12.74c-12.09,0.89-22.23,8.97-32.15,15.93
		c-9.93,6.96-21.93,13.35-33.66,10.28c-8.48-2.22-14.92-8.93-22.41-13.48c-17.3-10.51-41.39-8.24-56.42,5.32
		c17.46-7.42,38.17-6.87,55.13,1.71c3.03,1.53,5.49,4.13,6.57,7.36c3,8.93-5.74,13.7-12.71,12.47c-5.3-0.93-9.76-4.37-13.98-7.7
		c3.65,5.11,8.59,9.11,14.24,11.82c15.14,7.28,30.02-3.84,43.11-10.26c2.91-1.43,5.9-2.74,8.9-3.95c6.29-2.53,12.89-4.98,18.33-9.15
		c12.66-9.71,30.08-12.94,45.36-8.23c1.77,0.55,3.45,1.38,4.82,2.62c6.65,6.01,1.76,13.15-4.11,15.12c-4.16,1.4-8.69,0.88-13.07,0.5
		c-4.38-0.38-9.01-0.56-12.92,1.44c19.1,5.47,40.32,3.13,57.77-6.37c12.74-6.93,23.57-17.49,37.27-22.25
		c6.04-2.1,12.21-3.95,18.55-4.88c4.22-0.62,8.79-1.75,13.03-0.83c4.08,0.89,7.77,3.39,10.33,6.65c2.81,3.57,4.41,7.93,5.25,12.36
		c0.86,4.59-0.21,8.93-0.94,13.5c-0.87,5.48-1.77,11.19-3.3,16.53c-2.5,8.66-5.23,27.21-6.63,36.11
		c-2.92,18.51-5.88,37.01-8.73,55.52c-3.78,24.54-7.76,49.1-10.61,73.77c-0.37,3.17-0.05,7.56-1.19,10.42
		c-9.44-4.07-17.86-7.21-28.39-7.15c-10.15,0.06-20.28,2.39-29.61,6.34c-8.51,3.6-17.26,8.55-26.39,7.08
		c-12.15-1.95-20.28-14.58-32.32-17.12c-8.7-1.84-17.58,2-25.16,6.65c-7.58,4.64-14.81,10.27-23.39,12.6
		c-16.29,4.41-33.19-3.64-47.68-10.34c-14.56-6.74-31.31-13.11-46.25-8.09c-0.73,0.25-1.07,1.11-0.75,1.81
		c4.2,9.19,3.04,4.33,8.03,13.1c0.43,0.76,1.5,0.89,2.07,0.22c1.54-1.81,3.38-3.36,5.49-4.5c8.37-4.54,26.85,11.57,31.31,19.98
		c3.57,6.73,2.73,14.93,0.75,22.29c-1.63,6.02-3.95,11.9-5.1,18c-0.07,0.36,0.03,0.74,0.26,1.03c1.86,2.35,3.75,4.68,5.67,6.98
		c0.79,0.95,2.32,0.3,2.2-0.93c-1.3-14.22,2.28-28.87,9.4-41.17c0.74-1.28,1.62-2.49,2.72-3.48c5.76-5.2,14.02-4.2,20.76-2.27
		c4.21,1.2,12.38,3.15,14.46,7.37c0.73,1.48,0.76,3.21,0.59,4.86c-1.16,11.21-10.25,19.76-11.51,30.92
		c-1.15,10.28-1.42,20.78,8.46,23.96c-2.09-5.23-1.65-7.11-2.21-12.63c-0.63-6.22,1.8-12.2,4.77-17.52
		c5.15-9.21,13.46-19.19,10.3-30.53c-0.68-2.43-1.91-4.71-2.32-7.21c-1.04-6.23,5.27-10.49,10.81-7.78c3.04,1.49,5.18,4.29,7.2,7
		c5.04,6.74,10.08,13.47,15.11,20.21c2.16,2.88,4.82,8.46,7.79,10.43c3.61,2.4,3.96-2.02,3.01-5.18c-0.75-2.5-2.35-4.65-3.93-6.73
		c-2.78-3.65-5.64-7.26-8.93-10.45c-2.75-2.67-5.98-5.34-6.72-9.1c-0.55-2.8,0.48-5.78,2.35-7.93c2.87-3.29,7.43-4.85,11.71-4.73
		c4.78,0.13,9.33,2.06,13.44,4.51c4.11,2.44,7.88,5.41,11.96,7.89c4.63,2.82,10.56,5.43,12.38,11.01c1.28,3.93,0.76,10.89,0.1,14.92
		c-0.59,3.64-5.17,7.13-7.21,10.67c-4.8,8.35-12.47,17.81-4.44,27.92c-2.22-9.86,5.17-23.68,14.6-27.53
		c3.01,3.71,3.6,9.81,3.29,14.43c-1.02,15.08-12.15,27.82-21.54,38.33c-1.73,1.93-4.09,3.27-6.67,3.45
		c-6.16,0.44-7.92-5.29-10.97-9.22c-5.84-7.53-17.96-8.28-25.75-2.8s-11.32,15.73-10.41,25.22c0.3,3.11,1.55,6.74,4.59,7.44
		c0.31,0.07,0.65,0.1,0.95-0.02c0.77-0.31,0.82-1.35,0.77-2.18c-0.46-8.56,2.73-17.71,10.69-21.97c3.03-1.62,6.55-2.27,9.94-1.66
		c9.07,1.62,12.57,10.5,12.43,18.53c-0.11,6.25-2.01,12.31-3.06,18.47c-0.39,2.27-0.66,4.63,0.01,6.83s2.51,4.19,4.8,4.37
		c0.71,0.05,1.5-0.11,1.94-0.67c0.41-0.53,0.4-1.25,0.4-1.91c-0.04-12.04,6.38-23.2,14-32.52c7.62-9.32,16.65-17.52,23.38-27.51
		c7.28-10.78,10.88-23.3,7.31-36.07c-3.46-12.4-11.32-24.28-6.17-37.51c2.28-5.87,7.71-9.94,13.92-10.97
		c12.27-2.03,22.72-4.42,33.34-0.29c1.15,0.45,7.65,2.76,13.6,4.31c4.88,1.27,6.94,7.06,3.94,11.22c-1.77,2.46-4.28,4.32-6.52,6.32
		c-2.72,2.44-5.38,4.95-7.96,7.54c-2.92,2.93-5.75,5.95-8.48,9.06c-1.36,1.56-2.7,3.13-4.02,4.73c-0.7,0.85-2.43,3.09-3.15,4.39
		c-0.64,1.05-1.23,2.12-1.76,3.22c-3.28,6.76-4.62,15.91-4.72,23.39c-0.09,6.62,1.44,13.39,5.23,18.82
		c3.79,5.42,10.03,9.32,16.64,9.4c-9.83-10.35-14.59-25.31-12.55-39.44c2.26-15.63,12.83-29.9,27.24-36.44
		c3.95-1.79,8.16-3.05,11.91-5.24c2.14-1.25,4.13-2.9,5.61-4.87c2,1.47,4.13,2.75,6.39,3.79c6.15,2.84,13.15,4.11,17.58,9.94
		c2.01,2.66,2.75,6.19,1.48,9.28c-2.6,6.33-10.64,6.03-16.92,7.61c-11.95,3.01-20.06,16.65-17.01,28.58
		c3.12,12.18,15.56,20.64,17.47,33.07c-10.69-7.64-27.1-5.64-35.65,4.34c-3.57,4.16-6.01,9.57-10.81,12.22
		c-4.24,2.35-9.4,2.01-14.24,1.68c-4.84-0.32-10.05-0.47-14.12,2.17c-4.07,2.64-5.87,9.18-2.2,12.34c-0.64-3.87,2.8-7.47,6.61-8.43
		c3.8-0.97,7.8,0,11.6,0.97c3.8,0.97,7.79,1.96,11.6,1.04c12.28-2.97,13.83-22.34,27.75-24.45c2.71-0.41,5.52,0.03,8.03,1.15
		c13.93,6.18,9.28,25.08-2.35,29.62c-8.48,3.31-19.04,0.41-24.56,11.57c-2.45,4.96-2.66,10.66-0.9,15.91
		c1.53,4.58,4.12,8.44,7.27,11.86c0.19,0.21,0.45,0.34,0.72,0.39c0.84,0.14,1.68,0.29,2.53,0.43c1.02,0.17,1.82-0.91,1.33-1.82
		c-3.11-5.81-5.07-12.24-5.61-18.82c-0.22-2.61,0.64-5.27,2.54-7.08c4.67-4.46,11.04-0.43,14.87,3.85
		c7.31,8.18,12.72,18.47,19.44,27.09c0.22,0.29,0.56,0.46,0.92,0.48c2.62,0.16,5.25,0.3,7.88,0.4c0.92,0.04,1.57-0.9,1.21-1.75
		c-2.62-6.25-5.23-12.49-7.85-18.74c-3.91-9.32-7.89-19.36-5.83-29.26c1.48-7.1,5.91-13.17,9.07-19.71
		c3.16-6.53,4.97-14.62,1.21-20.83c-2.48-4.09-6.91-6.57-10.01-10.21c-7.39-8.68-4.63-23.9,5.34-29.43
		c-3.35,5.3-4.1,12.16-1.98,18.06c2.12,5.9,7.06,10.72,13.01,12.68c-5.68-5.42-5.43-14.78-2.32-21.99
		c4.49-10.44,13.72-18.34,15.9-30.13c0.36-1.96,0.45-3.98,0.17-5.96c-1.72-12.19-13.03-14.96-22.64-18.21
		c-7.61-2.58-14.63-3.81-15.3-11.82c0.71-6.62,4.23-27.54,12.56-65.86c4.93-22.65,18.12-61.19,21.75-71.17
		c0.24-0.65,1.14-0.65,1.38,0c3.69,10.15,12.83,22.48,20.89,58.75c6.71,30.2,7.19,59.53,8.55,73.49
		c-0.28,6.14,1.76,12.17,1.38,18.32c-0.45,7.13-1.01,14.62-4.86,20.64c-3.98,6.23-10.65,10.05-13.16,17.34
		c-2.95,8.58,0.64,18.2-1.41,27.04c-1.75,7.53-7.3,13.48-11.79,19.77c-4.08,5.72-8.58,14.32-5.47,21.43
		c4.16-6.11,11.32-9.15,14.81-16.23c1.39-2.82,2.24-5.9,3.85-8.6c1.95-3.28,6.91-7.68,6-1.26c-0.76,5.37-1.74,10.33-1.32,15.81
		c0.51,6.7,2.28,13.85-0.71,19.87c-3.08,6.18-10.23,9.12-14.74,14.35c-4.32,4.99-5.97,11.89-5.61,18.48
		c0.36,6.59,2.56,12.95,5.19,19c0.75,1.73,1.57,3.48,2.89,4.82c1.33,1.34,3.28,2.21,5.11,1.77c0.85-0.2,1.67-0.73,1.98-1.54
		c0.32-0.83,0.06-1.76-0.2-2.62c-2.6-8.57-4.52-17.9-2.82-26.85c1.79-9.44,8.43-16.3,13.83-23.85c3.8-5.31,7.04-11.33,7.36-17.85
		c0.32-6.57-2.36-12.94-2.7-19.51c-0.28-5.42,1.05-10.77,0.83-16.18c-0.23-5.56-2.33-10.84-2.3-16.47
		c0.03-5.8,2.53-11.42,7.36-14.77c3.85-2.67,10.18-4.47,12.5,1.03c5.07,12.01-3.5,21.49-3.85,32.34c-0.26,7.92,3.86,15.23,6.2,22.8
		c2.34,7.57,2.26,17.21-4.17,21.83c3.17,1.48,5.59,1.3,8.29-1.6c1.36-1.46,2.3-3.26,2.87-5.18c3.9-12.92-4.47-25.71-4.53-38.9
		c-0.06-11.99,6.73-23.39,7-35.19c-0.01,0.6,3.22,1.73,3.73,2.07c3.15,2.09,5.4,5.82,7.89,8.29c2.4,2.38,4.56,4.98,6.27,7.89
		c2.13,3.63,6.65,7.2,6.65,12.04c0,5.08-3.42,10.54-4.47,15.53c-1.2,5.71-1.57,11.56-1.35,17.38c0.49,12.92-0.62,23.65-9.76,33.43
		c-8.91,9.54-21.87,17.6-20.42,33.64c0.11,1.2,0.33,2.38,0.58,3.56c0.31,1.43,0.77,2.92,1.85,3.91c1.08,0.99,2.95,1.26,3.96,0.2
		c0.94-0.98,0.77-2.54,0.63-3.89c-0.84-8.33,2.28-17,8.36-22.8c1.52-1.45,3.35-2.6,5.38-3.15c7.2-1.97,11.57,3.85,13.49,9.56
		c1.23,3.67,1.81,7.56,1.69,11.43c-0.04,1.21,0.57,2.98,1.69,2.52c0.51-0.21,0.7-0.83,0.82-1.38c1.03-4.84,0.99-9.91-0.11-14.74
		c-1.18-5.22-3.58-10.13-4.38-15.42c-1.44-9.52,2.36-18.73,5.26-27.59c1.5-4.58,2.9-9.25,3.34-14.06
		c0.47-5.11-1.42-10.08-0.13-15.18c1.06-4.21,4.07-7.8,4.72-12.09c0.73-4.86-1.73-9.67-4.87-13.44c-4.05-4.86-8.82-8.86-12.39-14.14
		c-5.77-8.52-9.68-17.67-19.86-22.5c-1.07-0.51-2.18-0.99-3.08-1.77c-4.43-3.86-3.52-14.4-1.44-19.14
		c-0.04,0.08,18.17,6.79,20.09,7.38c6.96,2.11,14.43,1.7,21.59,1.2c2.87-0.2,5.83-0.42,8.49,1c1.11,0.59,2.06,1.51,2.59,2.65
		c1.35,2.93-0.45,5.42-1.41,7.98c-1.27,3.37-3.15,6.62-2.75,10.37c0.25,2.29,1.35,4.43,2.79,6.23c5.64,7.01,12.68,8.15,21.08,8.87
		c5.94,0.51,10.02,4.16,9.37,11.73c-0.13,1.49-0.46,2.95-0.9,4.38c-0.47,1.5-0.98,2.99-1.53,4.46c-2.97,7.96-6.93,15.54-9.78,23.55
		c-4.16,11.73-4.46,23.42-0.18,35.16c3.57,9.77,9.96,18.49,18.21,24.83c0.65,0.5,1.37,1.01,2.19,1.02c0.64,0.01,1.24-0.28,1.81-0.57
		c1.14-0.57,2.29-1.14,3.43-1.71c0.54-0.27,1.15-0.63,1.24-1.23c0.06-0.42-0.16-0.82-0.38-1.18c-3.06-5.01-7.72-8.72-12.06-12.56
		c-3.54-3.13-6.99-6.48-9.26-10.63c-2.32-4.25-3.33-9.77-1.21-14.3c0.44-0.95,1.04-1.86,1.88-2.5c0.84-0.63,1.95-0.96,2.97-0.68
		c0.83,0.23,1.51,0.83,2.05,1.5c2.41,2.99,2.36,7.34,4.46,10.56c1.61,2.47,4.31,4.03,6.59,5.76c3.74,2.85,7.64,5.47,11.56,8.07
		c2.52,1.67,4.62,3.98,5.5,6.95c0.3,1.02,0.72,2.33,1.78,2.37c0.41,0.01,0.8-0.2,1.16-0.4c1.97-1.11,3.94-2.23,5.9-3.34
		c0.39-0.22,0.81-0.47,1-0.88c0.14-0.32,0.12-0.67,0.05-1.01c-0.26-1.2-0.61-2.38-1.25-3.42c-5.5-8.96-15.29-11.37-22.82-17.18
		c-7.52-5.8-12.62-15.44-12.3-25.02c0.24-7.25,3.48-14.03,5.2-21.08c1.43-5.89,1.8-12.04,1.08-18.05c-0.36-2.99-1.06-6.1-3.07-8.34
		c-2.94-3.26-7.83-3.78-12.22-3.56c-6.42,0.32-15.45,1.54-18.81-5.57c-1.87-3.95-0.25-8.63,1.76-12.51
		c2.01-3.88,4.49-7.84,4.31-12.2c-0.17-4.15-3.03-8.07-6.94-9.5c-0.96-0.35-1.98-0.54-3-0.59c2.17-1.44,4.22-3.04,6.1-4.83
		c3.79-3.59,7.66-8.15,12.89-8.14c4.98,0,8.84,4.19,11.99,8.01C666.94,604.01,668.88,606.44,669.89,607.62z"/>
	<g>
		<path class="st0" d="M270.69,896.14c-1.96-9.96-7.39-14.48-17.5-14.48h-20.37v36.06h16.14c3.92,0,5.28-0.75,6.34-4.52l1.66-5.89
			l5.73,0.45v29.27l-5.73,0.45l-1.66-6.64c-0.91-3.62-2.11-4.83-6.34-4.83h-16.14v32.74c0,3.77,1.06,5.43,4.07,6.19l7.7,1.96
			l-0.45,5.73h-38.62l-0.45-5.73l6.49-1.96c3.02-0.91,4.07-2.41,4.07-6.19v-71.81c0-3.77-1.05-5.28-4.07-6.19l-6.49-1.96l0.45-5.73
			h70.31l1.66,22.17L270.69,896.14z"/>
		<path class="st0" d="M326.36,878.78l-6.49,1.96c-3.02,0.91-4.07,2.41-4.07,6.19v71.81c0,3.77,1.05,5.28,4.07,6.19l6.49,1.96
			l-0.45,5.73h-37.42l-0.45-5.73l6.49-1.96c3.01-0.91,4.07-2.41,4.07-6.19v-71.81c0-3.77-1.06-5.28-4.07-6.19l-6.49-1.96l0.45-5.73
			h37.42L326.36,878.78z"/>
		<path class="st0" d="M409.78,972.63h-69.1l-3.17-9.06l43.15-65.03c4.07-6.04,8.15-11.46,13.12-16.9h-28.21
			c-10.56,0-15.99,3.77-17.95,15.24l-6.79-0.6l1.21-23.23h65.33l3.17,9.2l-41.64,63.82c-4.53,7.09-8.9,12.82-13.42,17.95h30.32
			c11.16,0,16.9-4.83,19.31-16.29l6.79,0.91L409.78,972.63z"/>
		<path class="st0" d="M473.15,941.55c0,22.18-11.32,33.04-30.78,33.04c-7.09,0-16.75-2.11-22.63-4.83L422,949.7h6.64
			c1.21,11.02,5.88,16.6,13.88,16.6c8.9,0,13.43-7.55,13.43-21.58v-57.78c0-3.77-0.75-5.43-4.07-6.19l-8.6-1.96l0.45-5.73h39.53
			l0.45,5.73l-6.49,1.96c-3.01,0.91-4.07,2.41-4.07,6.19V941.55z"/>
		<path class="st0" d="M593.55,921.48c0,30.48-21.27,53.11-50.24,53.11c-28.52,0-48.89-20.97-48.89-50.54
			c0-30.48,21.73-52.96,51-52.96C573.63,871.09,593.55,891.91,593.55,921.48z M512.83,922.84c0,24.89,13.43,43.45,31.54,43.45
			c17.95,0,30.78-17.96,30.78-43.45c0-24.89-13.28-43.45-31.08-43.45C525.8,879.39,512.83,897.34,512.83,922.84z"/>
		<path class="st0" d="M653.14,964.03c10.26,0,15.99-5.28,18.26-16.9l6.79,0.91l-1.66,24.59h-69.71l-0.45-5.73l6.49-1.96
			c3.02-0.91,4.07-2.41,4.07-6.19v-71.81c0-3.77-1.05-5.28-4.07-6.19l-6.49-1.96l0.45-5.73h38.62l0.45,5.73l-7.7,1.96
			c-3.02,0.75-4.07,2.41-4.07,6.19v77.1H653.14z"/>
		<path class="st0" d="M761.77,972.63h-72.57l-0.45-5.73l6.49-1.96c3.02-0.91,4.07-2.41,4.07-6.19v-71.81
			c0-3.77-1.06-5.28-4.07-6.19l-6.49-1.96l0.45-5.73h69.55l1.66,22.17l-6.79,0.91c-1.96-9.96-7.39-14.48-17.5-14.48H716.5v34.86
			h15.54c3.93,0,5.28-0.76,6.34-4.53l1.66-5.89l5.73,0.45v29.27l-5.73,0.45l-1.66-6.64c-0.91-3.62-2.11-4.83-6.34-4.83H716.5v39.23
			h21.88c10.11,0,15.99-5.13,18.25-16.44l6.79,0.91L761.77,972.63z"/>
		<path class="st0" d="M873.71,921.48c0,30.48-21.27,53.11-50.24,53.11c-28.52,0-48.89-20.97-48.89-50.54
			c0-30.48,21.73-52.96,51-52.96C853.79,871.09,873.71,891.91,873.71,921.48z M792.99,922.84c0,24.89,13.43,43.45,31.54,43.45
			c17.95,0,30.78-17.96,30.78-43.45c0-24.89-13.28-43.45-31.08-43.45C805.96,879.39,792.99,897.34,792.99,922.84z"/>
	</g>
</g>
</svg>
